<svg width="25mm" height="25mm" version="1.1" viewBox="0 0 25 25" xmlns="http://www.w3.org/2000/svg"><g transform="matrix(1.2793 0 0 1.2793 -3.8226 -6.6109)" stroke-linecap="round"><path d="m4.2796 10.095h17.027l0.76022 14.183h-18.547z" fill="#fff" stroke="#000" stroke-width=".3"/><path d="m12.699 5.4395c-3.1307-2e-7 -5.6738 2.5432-5.6738 5.6738v1.7174c0 0.13807 0.11193 0.25 0.25 0.25s0.25-0.11193 0.25-0.25v-1.7174c0-2.8605 2.3134-5.1738 5.1738-5.1738 2.8605 2e-7 5.1738 2.3134 5.1738 5.1738v1.7174c0 0.13807 0.11193 0.25 0.25 0.25s0.25-0.11193 0.25-0.25v-1.7174c0-3.1307-2.5432-5.6738-5.6738-5.6738z" color="#000000" stroke="#fff" stroke-width=".1"/></g></svg>
